<svg width="32" height="32" viewBox="0 0 32 32" fill="none" xmlns="http://www.w3.org/2000/svg">
<path d="M15.9934 21.5329C18.841 21.5329 21.1496 19.2244 21.1496 16.3767C21.1496 13.529 18.841 11.2205 15.9934 11.2205C13.1457 11.2205 10.8372 13.529 10.8372 16.3767C10.8372 19.2244 13.1457 21.5329 15.9934 21.5329Z" fill="#C4C4C4"/>
<path d="M22.4372 0.907959H9.54672C4.57227 0.907959 0.524658 4.95686 0.524658 9.9326V22.8231C0.524658 27.7975 4.57356 31.8451 9.5493 31.8451H22.4398C27.4142 31.8451 31.4618 27.7962 31.4618 22.8205V9.93002C31.4618 4.95557 27.4129 0.907959 22.4372 0.907959ZM15.9933 24.1109C11.7278 24.1109 8.25896 20.642 8.25896 16.3766C8.25896 12.1111 11.7278 8.64226 15.9933 8.64226C20.2587 8.64226 23.7276 12.1111 23.7276 16.3766C23.7276 20.642 20.2587 24.1109 15.9933 24.1109ZM25.0166 8.64226C24.305 8.64226 23.7276 8.06476 23.7276 7.35321C23.7276 6.64165 24.305 6.06416 25.0166 6.06416C25.7282 6.06416 26.3057 6.64165 26.3057 7.35321C26.3057 8.06476 25.7282 8.64226 25.0166 8.64226Z" fill="#C4C4C4"/>
</svg>
