<svg width="32" height="32" viewBox="0 0 32 32" fill="none" xmlns="http://www.w3.org/2000/svg">
<path d="M0.524902 9.19152C0.524902 4.17181 4.59418 0.102539 9.61388 0.102539H22.3731C27.3928 0.102539 31.4621 4.17181 31.4621 9.19152V21.9508C31.4621 26.9705 27.3928 31.0397 22.3731 31.0397H9.61388C4.59418 31.0397 0.524902 26.9705 0.524902 21.9507V9.19152Z" fill="#C4C4C4"/>
<path d="M15.9934 8.07129C11.8579 8.07129 8.49341 11.4357 8.49341 15.5712C8.49341 19.7067 11.8579 23.0711 15.9934 23.0711C20.129 23.0711 23.4934 19.7067 23.4934 15.5712C23.4934 11.4357 20.129 8.07129 15.9934 8.07129ZM20.8809 11.6084C21.7228 12.6448 22.2412 13.953 22.2843 15.379C20.7246 15.0561 19.3123 15.094 18.0656 15.3385C17.8398 14.8106 17.6062 14.3076 17.3703 13.8323C18.7281 13.2473 19.9101 12.5003 20.8809 11.6084ZM20.036 10.7498C19.0724 11.6293 17.9557 12.2805 16.8123 12.7613C15.973 11.2266 15.1701 10.0709 14.6809 9.41413C15.1045 9.3239 15.5434 9.27549 15.9934 9.27549C17.5313 9.27549 18.9415 9.83055 20.036 10.7498ZM13.4647 9.80742C13.834 10.2861 14.7138 11.4845 15.6589 13.1895C13.2837 13.9634 10.979 14.0937 9.87158 14.1059C10.3332 12.1775 11.6836 10.5919 13.4647 9.80742ZM9.70419 15.3131C9.71607 15.3131 9.72755 15.3132 9.73968 15.3132C10.5049 15.3132 11.9069 15.2617 13.5575 14.9608C14.4992 14.789 15.3921 14.5579 16.23 14.2715C16.4481 14.7062 16.665 15.1648 16.8752 15.6454C15.702 16.0231 14.7126 16.5666 13.9289 17.1062C12.6147 18.0112 11.6941 19.0153 11.1914 19.6361C10.2606 18.5384 9.69761 17.1197 9.69761 15.5712C9.69761 15.4847 9.70066 15.3988 9.70419 15.3131ZM12.0591 20.4811C12.4919 19.9361 13.3728 18.9443 14.6471 18.0739C15.5131 17.4824 16.409 17.043 17.3314 16.7545C17.8665 18.1416 18.3234 19.6742 18.5958 21.3016C17.802 21.6635 16.9213 21.8669 15.9934 21.8669C14.5057 21.8669 13.1378 21.3471 12.0591 20.4811ZM19.7036 20.6532C19.4229 19.1586 19.0042 17.7533 18.5202 16.469C19.7108 16.2681 20.9412 16.3095 22.205 16.5934C21.9324 18.2544 21.0082 19.6982 19.7036 20.6532Z" fill="white"/>
</svg>
