<svg width="32" height="32" viewBox="0 0 32 32" fill="none" xmlns="http://www.w3.org/2000/svg">
<path fill-rule="evenodd" clip-rule="evenodd" d="M9.61364 0.9729C4.59393 0.9729 0.524658 5.04217 0.524658 10.0619V22.8211C0.524658 27.8408 4.59393 31.9101 9.61364 31.9101H10.5701V19.1148H7.72644V14.752H10.5701V11.1997C10.5701 11.1997 10.7086 8.45782 12.6198 7.30245C13.4452 6.80343 15.0768 6.37126 16.5252 6.37126H20.4676V10.7858H17.587C17.587 10.7858 17.0976 10.8117 16.6729 11.079C16.2482 11.3462 16.2482 12.0619 16.2482 12.0619V14.752H20.4676L19.9875 19.1666H16.2021L16.2482 31.9101H22.3729C27.3926 31.9101 31.4618 27.8408 31.4618 22.8211V10.0619C31.4618 5.04217 27.3926 0.9729 22.3729 0.9729H9.61364Z" fill="#C4C4C4"/>
</svg>
