<svg width="32" height="31" viewBox="0 0 32 31" fill="none" xmlns="http://www.w3.org/2000/svg">
<path d="M0.524902 9.12682C0.524902 4.10711 4.59418 0.0378418 9.61388 0.0378418H22.3731C27.3928 0.0378418 31.4621 4.10712 31.4621 9.12682V21.8861C31.4621 26.9058 27.3928 30.975 22.3731 30.975H9.61388C4.59418 30.975 0.524902 26.9058 0.524902 21.8861V9.12682Z" fill="#C4C4C4"/>
<path d="M14.5301 15.0108C14.8728 14.8384 15.1319 14.6464 15.3095 14.4389C15.6254 14.0652 15.7813 13.5697 15.7813 12.9555C15.7813 12.3577 15.6254 11.8468 15.3136 11.4183C14.7933 10.7205 13.9128 10.3633 12.6678 10.3447H7.73535V20.4129H12.3343C12.8526 20.4129 13.3326 20.3686 13.7765 20.2777C14.2204 20.1858 14.6044 20.0176 14.9296 19.7719C15.2186 19.5582 15.4602 19.2929 15.6522 18.9801C15.9557 18.5073 16.1075 17.9715 16.1075 17.3748C16.1075 16.7967 15.9743 16.3043 15.71 15.8996C15.4426 15.495 15.0504 15.1987 14.5301 15.0108ZM9.77005 12.0935H11.9916C12.4799 12.0935 12.8825 12.1461 13.1984 12.2504C13.5638 12.4021 13.7465 12.7108 13.7465 13.1815C13.7465 13.6038 13.6072 13.899 13.3316 14.0652C13.0539 14.2314 12.6936 14.315 12.2517 14.315H9.77005V12.0935ZM13.283 18.4887C13.0373 18.6074 12.6915 18.6663 12.2487 18.6663H9.77005V15.9812H12.2827C12.7204 15.9843 13.0611 16.0421 13.3047 16.1505C13.7383 16.3466 13.954 16.7059 13.954 17.2313C13.954 17.8507 13.7311 18.2678 13.283 18.4887Z" fill="white"/>
<path d="M22.6637 10.8146H18.2898V12.0678H22.6637V10.8146Z" fill="white"/>
<path d="M24.1832 15.7604C24.0924 15.1772 23.8921 14.6641 23.5803 14.2213C23.2386 13.7196 22.8051 13.352 22.2775 13.1198C21.7521 12.8865 21.1606 12.7698 20.5019 12.7709C19.3963 12.7709 18.4982 13.1167 17.8035 13.8032C17.1108 14.4917 16.7639 15.4817 16.7639 16.7721C16.7639 18.1482 17.1469 19.1423 17.917 19.7524C18.684 20.3636 19.5698 20.6681 20.5752 20.6681C21.7923 20.6681 22.739 20.3057 23.4152 19.5831C23.8477 19.1268 24.0924 18.6778 24.146 18.237H22.1309C22.0143 18.4548 21.8791 18.6251 21.7242 18.749C21.4434 18.9761 21.078 19.0897 20.63 19.0897C20.2036 19.0897 19.8423 18.9957 19.5409 18.8089C19.0433 18.5095 18.7831 17.9851 18.7501 17.2387H24.2493C24.2575 16.5956 24.2369 16.1011 24.1832 15.7604ZM18.7997 15.9535C18.8719 15.4693 19.0474 15.0853 19.3261 14.8014C19.6049 14.5186 19.9992 14.3761 20.504 14.3751C20.9696 14.3751 21.3588 14.5082 21.6757 14.7756C21.9885 15.045 22.165 15.4363 22.2011 15.9535H18.7997Z" fill="white"/>
</svg>
