<?xml version="1.0" encoding="utf-8"?><svg xmlns="http://www.w3.org/2000/svg" xmlns:xlink="http://www.w3.org/1999/xlink"><symbol viewBox="0 0 16 16" id="arrow-down" xmlns="http://www.w3.org/2000/svg"><path d="M14 6H2l6 6 6-6z"/></symbol><symbol viewBox="0 0 24 24" id="cart" xmlns="http://www.w3.org/2000/svg"><path d="M1 11h22v4.877L21.22 23H2.78L1 15.877V11zm4-4V5a4 4 0 014-4h6a4 4 0 014 4v2M2 15h20M2 19h20M7 11v12m10-12v12m-5-12v12"/></symbol><symbol viewBox="0 0 24 24" id="close" xmlns="http://www.w3.org/2000/svg"><path d="M6.707 5.293a1 1 0 00-1.414 1.414l1.414-1.414zm10.586 13.414a1 1 0 001.414-1.414l-1.414 1.414zm-12-12l12 12 1.414-1.414-12-12-1.414 1.414z"/><path d="M17.293 5.293a1 1 0 111.414 1.414l-1.414-1.414zM6.707 18.707a1 1 0 01-1.414-1.414l1.414 1.414zm12-12l-12 12-1.414-1.414 12-12 1.414 1.414z"/></symbol><symbol viewBox="0 0 24 24" id="close2" xmlns="http://www.w3.org/2000/svg"><path d="M1.354.646a.5.5 0 10-.708.708l.708-.708zm21.292 22.708a.5.5 0 00.708-.708l-.708.708zm-22-22l22 22 .708-.708-22-22-.708.708z"/><path d="M22.646.646a.5.5 0 01.708.708l-.708-.708zM1.354 23.354a.5.5 0 01-.708-.708l.708.708zm22-22l-22 22-.708-.708 22-22 .708.708z"/></symbol><symbol viewBox="0 0 24 24" id="edit" xmlns="http://www.w3.org/2000/svg"><path d="M3 21l2-7 6-6 5 5-6 6-7 2zM15.293 3.707L13 6l5 5 2.293-2.293a1 1 0 000-1.414l-3.586-3.586a1 1 0 00-1.414 0z"/></symbol><symbol viewBox="0 0 40 40" id="fb" xmlns="http://www.w3.org/2000/svg"><path d="M21.939 32V21.052h3.813l.576-4.265h-4.389v-2.722c0-1.238.355-2.063 2.205-2.063H26.5V8.17A32.82 32.82 0 0023.063 8c-3.394 0-5.723 1.99-5.723 5.642v3.145H13.5v4.265h3.84V32h4.599z"/></symbol><symbol viewBox="0 0 40 40" id="instagram" xmlns="http://www.w3.org/2000/svg"><g clip-path="url(#gclip0)"><path d="M20 10.163c3.204 0 3.584.012 4.85.07 3.252.148 4.771 1.691 4.919 4.919.058 1.265.069 1.645.069 4.849 0 3.205-.012 3.584-.069 4.849-.149 3.225-1.664 4.771-4.919 4.919-1.266.058-1.644.07-4.85.07-3.204 0-3.584-.012-4.849-.07-3.26-.149-4.771-1.699-4.919-4.92-.058-1.265-.07-1.644-.07-4.849 0-3.204.013-3.583.07-4.849.149-3.227 1.664-4.771 4.919-4.919 1.266-.057 1.645-.069 4.849-.069zM20 8c-3.259 0-3.667.014-4.947.072-4.358.2-6.78 2.618-6.98 6.98C8.014 16.333 8 16.741 8 20c0 3.259.014 3.668.072 4.948.2 4.358 2.618 6.78 6.98 6.98 1.281.058 1.689.072 4.948.072 3.259 0 3.668-.014 4.948-.072 4.354-.2 6.782-2.618 6.979-6.98.059-1.28.073-1.689.073-4.948 0-3.259-.014-3.667-.072-4.947-.196-4.354-2.617-6.78-6.979-6.98C23.668 8.014 23.259 8 20 8zm0 5.838a6.162 6.162 0 100 12.324 6.162 6.162 0 000-12.324zM20 24a4 4 0 110-8 4 4 0 010 8zm6.406-11.845a1.44 1.44 0 100 2.881 1.44 1.44 0 000-2.881z"/></g><defs><clipPath id="gclip0"><path transform="translate(8 8)" d="M0 0h24v24H0z"/></clipPath></defs></symbol><symbol viewBox="0 0 24 24" id="list" xmlns="http://www.w3.org/2000/svg"><path fill-rule="evenodd" clip-rule="evenodd" d="M4 2h16v15h-5v5H4V2zm12 22H2V0h20v24h-6zm4-4v2h-2l2-2z"/><path d="M16 24l6-6v6h-6zM6 6h12v2H6V6zm0 4h12v2H6v-2z"/></symbol><symbol viewBox="0 0 24 24" id="menu" xmlns="http://www.w3.org/2000/svg"><path d="M5 0H1a1 1 0 00-1 1v4a1 1 0 001 1h4a1 1 0 001-1V1a1 1 0 00-1-1zm0 9H1a1 1 0 00-1 1v4a1 1 0 001 1h4a1 1 0 001-1v-4a1 1 0 00-1-1zm0 9H1a1 1 0 00-1 1v4a1 1 0 001 1h4a1 1 0 001-1v-4a1 1 0 00-1-1zm9-18h-4a1 1 0 00-1 1v4a1 1 0 001 1h4a1 1 0 001-1V1a1 1 0 00-1-1zm0 9h-4a1 1 0 00-1 1v4a1 1 0 001 1h4a1 1 0 001-1v-4a1 1 0 00-1-1zm0 9h-4a1 1 0 00-1 1v4a1 1 0 001 1h4a1 1 0 001-1v-4a1 1 0 00-1-1zm9-18h-4a1 1 0 00-1 1v4a1 1 0 001 1h4a1 1 0 001-1V1a1 1 0 00-1-1zm0 9h-4a1 1 0 00-1 1v4a1 1 0 001 1h4a1 1 0 001-1v-4a1 1 0 00-1-1zm0 9h-4a1 1 0 00-1 1v4a1 1 0 001 1h4a1 1 0 001-1v-4a1 1 0 00-1-1z"/></symbol><symbol viewBox="0 0 32 32" id="more" xmlns="http://www.w3.org/2000/svg"><path d="M32 16c0 8.837-7.163 16-16 16S0 24.837 0 16 7.163 0 16 0s16 7.163 16 16z"/><rect x="6" y="17" width="2" height="18" rx="1" transform="rotate(-90 6 17)"/><path d="M23 16l-6 6m6-6l-6-6"/></symbol><symbol viewBox="0 0 16 16" id="search" xmlns="http://www.w3.org/2000/svg"><circle cx="6" cy="6" r="5"/><path d="M15 15l-5-5"/></symbol><symbol viewBox="0 0 34 82" id="slider-arrow-right" xmlns="http://www.w3.org/2000/svg"><path d="M1 1l32 40M1 81l32-40"/></symbol><symbol viewBox="0 0 40 40" id="twitter" xmlns="http://www.w3.org/2000/svg"><path d="M31.683 13.393a8.93 8.93 0 01-2.611.715 4.51 4.51 0 001.984-2.501 8.948 8.948 0 01-2.861 1.096 4.517 4.517 0 00-7.832 3.086c-.002.352.039.702.12 1.044a12.803 12.803 0 01-9.299-4.699 4.521 4.521 0 001.394 6.026 4.421 4.421 0 01-2.041-.564v.057a4.506 4.506 0 003.618 4.422 4.483 4.483 0 01-1.19.162 4.57 4.57 0 01-.852-.083 4.522 4.522 0 004.22 3.133 9.059 9.059 0 01-5.608 1.931 9.233 9.233 0 01-1.034-.067 12.792 12.792 0 006.918 2.025c8.302 0 12.839-6.87 12.839-12.833v-.585a9.044 9.044 0 002.235-2.365z"/></symbol><symbol viewBox="0 0 24 24" id="user" xmlns="http://www.w3.org/2000/svg"><path d="M12 0C5.373 0 0 5.373 0 12s5.373 12 12 12 12-5.373 12-12S18.627 0 12 0zm7.753 18.305c-.261-.586-.789-.991-1.871-1.241-2.293-.529-4.428-.993-3.393-2.945C17.634 8.177 15.322 5 12 5c-3.388 0-5.644 3.299-2.489 9.119 1.066 1.964-1.148 2.427-3.393 2.945-1.084.25-1.608.658-1.867 1.246A9.954 9.954 0 012 12C2 6.486 6.486 2 12 2s10 4.486 10 10a9.956 9.956 0 01-2.247 6.305z"/></symbol><symbol viewBox="0 0 40 40" id="vk" xmlns="http://www.w3.org/2000/svg"><path fill-rule="evenodd" clip-rule="evenodd" d="M31.678 15.016c.175-.586 0-1.016-.836-1.016H28.08c-.703 0-1.027.372-1.202.781 0 0-1.405 3.425-3.396 5.65-.644.644-.937.85-1.288.85-.176 0-.44-.206-.44-.791v-5.474c0-.703-.194-1.016-.78-1.016h-4.341c-.44 0-.704.326-.704.635 0 .666.996.82 1.098 2.693v4.07c0 .892-.16 1.053-.512 1.053-.937 0-3.215-3.44-4.567-7.377-.265-.765-.53-1.074-1.236-1.074H7.947c-.79 0-.947.372-.947.781 0 .732.937 4.362 4.362 9.163C13.645 27.223 16.862 29 19.79 29c1.756 0 1.973-.395 1.973-1.075v-2.478c0-.79.167-.947.723-.947.41 0 1.112.205 2.752 1.786C27.11 28.159 27.42 29 28.474 29h2.763c.79 0 1.184-.395.956-1.174-.249-.776-1.143-1.903-2.33-3.238-.644-.761-1.61-1.58-1.903-1.99-.41-.527-.293-.762 0-1.23 0 0 3.366-4.742 3.718-6.352z"/></symbol><symbol viewBox="0 0 40 40" id="youtube" xmlns="http://www.w3.org/2000/svg"><path d="M27.615 11.184c-3.604-.246-11.631-.245-15.23 0C8.488 11.45 8.029 13.804 8 20c.029 6.185.484 8.55 4.385 8.816 3.6.245 11.626.246 15.23 0C31.512 28.55 31.971 26.196 32 20c-.029-6.185-.484-8.549-4.385-8.816zM17 24v-8l8 3.993L17 24z"/></symbol></svg>